<svg xmlns="http://www.w3.org/2000/svg" xmlns:xlink="http://www.w3.org/1999/xlink" version="1.1" x="0px" y="0px" viewBox="0 0 137.434 116.39250000000001" style="enable-background:new 0 0 137.434 93.114;" xml:space="preserve">
	<g>
		<path d="M120.073,11.766c-3.037-0.023-4.926,1.592-5.838,3.132c-0.936,1.54-1.084,2.992-1.098,3.072   c-0.061,0.551,0.34,1.043,0.889,1.102c0.035,0.004,0.072,0.006,0.109,0.006c0.504,0,0.938-0.382,0.992-0.894   c0,0,0.023-0.24,0.143-0.672c0.42-1.346,1.373-3.733,4.803-3.748c0.383,0,0.803,0.03,1.266,0.101   c0.543,0.084,1.053-0.292,1.137-0.836c0.086-0.546-0.291-1.056-0.836-1.141C121.082,11.803,120.561,11.764,120.073,11.766z" />
		<path d="M109.733,16.823c0.053,0.009,0.107,0.013,0.16,0.013c0.48,0,0.906-0.35,0.986-0.84c0-0.002,0.061-0.391,0.279-1.045   c0.709-2.014,2.52-5.788,7.822-5.798c0.752,0,1.58,0.078,2.496,0.253c0.543,0.106,1.068-0.251,1.172-0.793   c0.105-0.542-0.248-1.067-0.791-1.171c-1.033-0.199-1.99-0.29-2.877-0.29c-4.27-0.017-6.922,2.167-8.318,4.284   c-1.416,2.119-1.74,4.161-1.758,4.24C108.817,16.22,109.188,16.734,109.733,16.823z" />
		<path d="M128.901,19.183c0.525,0.554,1.549,1.914,1.533,3.527c-0.006,1.055-0.379,2.301-1.76,3.785   c-0.377,0.402-0.357,1.036,0.047,1.414c0.193,0.18,0.439,0.27,0.684,0.27c0.268,0,0.535-0.106,0.732-0.317   c1.656-1.758,2.305-3.566,2.299-5.151c-0.041-3.257-2.422-5.216-2.486-5.296c-0.418-0.361-1.051-0.314-1.41,0.106   c-0.359,0.418-0.31,1.049,0.107,1.41C128.647,18.93,128.731,18.999,128.901,19.183z" />
		<path d="M133.235,17.09c0.744,0.868,2.213,2.986,2.199,5.564c-0.008,1.865-0.707,4.049-3.166,6.49   c-0.393,0.387-0.397,1.021-0.008,1.415c0.195,0.197,0.453,0.296,0.711,0.296c0.254,0,0.508-0.096,0.703-0.288   c2.768-2.72,3.77-5.505,3.76-7.914c-0.033-4.452-3.129-7.34-3.193-7.425c-0.398-0.381-1.033-0.368-1.414,0.033   c-0.381,0.398-0.365,1.032,0.033,1.413C132.86,16.675,132.992,16.8,133.235,17.09z" />
		<path d="M0.52,35.865L0.448,35.97C0.393,36.064,0.004,36.713,0,37.734c-0.012,0.875,0.336,2.006,1.334,3.014   c0.051,0.051,0.113,0.077,0.17,0.115c1.584,1.844,4.744,3.104,8.389,3.104c2.984,0,5.643-0.846,7.379-2.165   c0.568-0.375,1.084-0.845,1.529-1.48l0.133-0.254l3.875-11.117c0.682,0.328,1.326,0.68,1.889,1.084   c1.867,1.339,6.053,14.479,6.953,17.897c4.572,0.388,12.098-4.676,16.324-7.599c-4.33,4.518-11.994,11.727-11.984,11.785   c-0.443,0.579-0.781,1.252-0.94,2.015h-0.002L16.533,87.099c-0.517,2.496,0.924,4.983,3.348,5.77   c0.514,0.166,1.035,0.246,1.549,0.246c1.918,0,3.729-1.109,4.557-2.942L46.711,70.61c2.865,1.584,6.105,2.992,8.563,3.373   c11.613,1.791,31.959-12.456,32.682-12.519c5.115,3.605,23.412,31.136,32.578,31.136c9.168,0-12.447-36.599-12.578-37.308   c-0.937-4.855-2.377-8.498-4.213-11.265c-0.088-0.198-0.178-0.407-0.26-0.583c7.17-3.135,14.809-8.487,20.992-17.625   c1.32-1.95,0.803-4.594-1.15-5.904c-1.945-1.313-4.592-0.805-5.904,1.148c-6.502,9.703-15.082,14.25-22.279,16.364   c-17.828-9.531-22.99,7.654-43.949,0.472c1.916-5.357,2.193-17.17-4.182-23.511c2.117-3.616,2.906-7.016-0.336-11.129   c-2.723-3.455-7.352-4.26-6.359-1.948c2.826,6.615-1.838,9.667-2.092,9.738c-0.244,0.067-3.258,2.214-6.891,2.879   c1.092-1.006,2.051-1.876,2.852-2.631c1.852-1.816,3.068-2.873,3.174-4.543c0.002-0.318-0.068-0.65-0.203-0.947   c-0.586-1.185-1.992-2.349-4.027-3.469c-2.025-1.082-4.654-1.966-7.522-1.966c-1.469-0.002-2.998,0.235-4.518,0.8   c-1.27,0.502-2.096,1.178-2.785,2.314l-0.135,0.323l-2.187,9.917c-0.875,0.34-1.563,0.851-1.924,1.623   c-1.283,2.742-1.592,4.013-1.393,5.562C6.514,28.336,0.522,35.861,0.52,35.865z M13.451,23.097l4.182,0.743l-2.908,5.729   l-5.957-0.754C10.229,27.017,11.825,25.067,13.451,23.097z M1.942,37.728c0-1.922,3.147-3.48,7.025-3.48   c3.016,0,5.58,0.944,6.576,2.267c-1.268-0.712-3.076-1.161-5.094-1.161c-3.826,0-6.93,1.605-6.93,3.585   c0,0.428,0.152,0.837,0.418,1.218C2.705,39.529,1.942,38.673,1.942,37.728z M6.153,39.311c0-1.077,2.137-1.949,4.773-1.949   s4.773,0.872,4.773,1.949c0,1.076-2.137,1.949-4.773,1.949S6.153,40.387,6.153,39.311z M9.893,32.386   c-1.674,0-3.244,0.268-4.609,0.733c0.809-1.004,1.734-2.15,2.742-3.393l7.271,0.922l3.838-7.56l-4.949-0.878   c0.67-0.808,1.34-1.616,2.006-2.412l7.375,0.907l-5.195,14.9C16.821,33.699,13.612,32.386,9.893,32.386z M35.744,16.92   c1.605,0.802,2.258,2.753,1.455,4.356c-0.801,1.61-2.754,2.26-4.358,1.458c-1.607-0.801-2.26-2.752-1.457-4.359   C32.186,16.77,34.139,16.117,35.744,16.92z M20.08,4.427c0.572-0.83,0.719-0.927,1.748-1.397c1.236-0.46,2.52-0.659,3.777-0.661   c2.449,0,4.791,0.772,6.58,1.73c1.781,0.92,3.035,2.182,3.146,2.53c0.02,0.049,0.023,0.073,0.025,0.124   c0.105,0.197-0.66,1.384-2.545,3.089c-1.168,1.101-2.709,2.477-4.574,4.227c-2.213-0.243-6.705-1.168-10.105-0.822L20.08,4.427z" />
		<rect x="19.022" y="7.176" transform="matrix(0.3787 -0.9255 0.9255 0.3787 7.1267 25.9674)" width="7.766" height="0.998" />
		<rect x="22.649" y="7.799" transform="matrix(0.4963 -0.8681 0.8681 0.4963 5.9795 26.9051)" width="7.056" height="1.001" />
		<rect x="25.936" y="9.049" transform="matrix(0.7161 -0.698 0.698 0.7161 1.6893 23.2519)" width="6.982" height="1" />
	</g>
	<!--
	<text x="0" y="108.114" fill="#000000" font-size="5px" font-weight="bold" font-family="'Helvetica Neue', Helvetica, Arial-Unicode, Arial, Sans-serif">
	Created by Gan Khoon Lay
	</text>
	<text x="0" y="113.114" fill="#000000" font-size="5px" font-weight="bold" font-family="'Helvetica Neue', Helvetica, Arial-Unicode, Arial, Sans-serif">
	from the Noun Project
	</text>
	-->
</svg>
